<?xml version="1.0" encoding="utf-8"?>
<svg version="1.0" xmlns="http://www.w3.org/2000/svg" width="784px" height="572px" viewBox="230 220 320 180" preserveAspectRatio="xMidYMid meet">
 <g fill="#3C83D6">
  <path d="M251.62 393.72 c0 -0.20 5.30 -7.09 11.79 -15.43 13.91 -17.88 24.63 -31.78 45.76 -59.13 8.54 -11.12 17.48 -22.71 19.86 -25.82 2.38 -3.11 8.87 -11.59 14.44 -18.87 16.36 -21.39 15.56 -20.53 20.13 -22.78 3.44 -1.72 4.90 -2.05 8.81 -2.05 8.54 0.07 8.94 0.33 27.28 22.51 6.49 7.81 14.63 17.55 18.08 21.52 5.10 5.89 6.03 7.35 4.97 7.48 -0.66 0.07 -7.95 -1.19 -16.16 -2.78 l-14.90 -2.98 -3.11 -3.51 c-1.72 -1.92 -4.57 -5.36 -6.29 -7.61 -4.37 -5.63 -4.77 -5.56 -10.53 1.79 -3.11 3.97 -53.11 70.19 -72.84 96.48 l-8.54 11.39 -19.34 0.07 c-10.66 0 -19.40 -0.13 -19.40 -0.26z"/>
  <path d="M323.27 393.39 c0.20 -0.60 7.95 -10.59 49.66 -64.43 6.09 -7.88 11.46 -14.57 11.79 -14.77 0.40 -0.26 1.26 0.26 1.99 1.13 3.05 3.91 27.88 33.97 32.64 39.53 4.57 5.36 5.43 6.09 5.83 4.97 0.33 -0.66 4.64 -11.85 9.60 -24.76 4.90 -12.91 12.71 -33.17 17.28 -45.03 4.50 -11.85 9.73 -25.36 11.52 -30.06 1.79 -4.70 3.18 -8.87 3.05 -9.27 -0.20 -0.40 -6.75 -2.98 -14.63 -5.69 -7.81 -2.71 -14.30 -5.16 -14.30 -5.43 0 -0.26 4.04 -3.97 9.07 -8.28 4.97 -4.30 13.71 -11.85 19.40 -16.75 5.63 -4.90 15.49 -13.38 21.79 -18.87 19.53 -16.89 20.66 -17.75 21.19 -17.15 0.26 0.33 3.24 15.83 6.62 34.37 3.38 18.61 7.22 39.33 8.54 46.15 1.32 6.82 2.19 12.58 1.99 12.78 -0.20 0.20 -7.22 -2.05 -15.49 -5.03 -8.34 -2.91 -15.76 -5.50 -16.49 -5.69 -1.19 -0.26 -1.85 1.19 -6.09 12.51 -8.67 23.44 -34.70 92.11 -38.67 102.11 -4.70 11.72 -6.62 14.57 -11.32 17.02 -2.12 1.06 -3.91 1.26 -13.11 1.26 l-10.59 0 -2.45 -2.52 c-1.39 -1.39 -7.55 -8.54 -13.71 -15.89 -6.16 -7.35 -11.46 -13.38 -11.72 -13.38 -0.33 0 -5.96 7.15 -12.65 15.83 l-12.12 15.89 -19.40 0 c-11.72 0.07 -19.34 -0.20 -19.20 -0.53z"/>
 </g>
</svg>